<svg id="Capa_1" data-name="Capa 1" xmlns="http://www.w3.org/2000/svg" viewBox="0 0 922.73 502.51"><defs><style>.cls-1{fill:#1c2d64;}</style></defs><path class="cls-1" d="M20.41,415.87c-.19-94,80.49-120.31,84.45-171.06V227.23c0-16.83-13.56-20.54-23.3-17.53-24.74,7.65-38.11,49.84-38.12,72.74q-4.84,1.63-9.67,3.32V215.43q4.83-1.68,9.67-3.33s1.5,11.72,7.46,9.72,14.15-17,35.16-23.43c30-9,44.47,11.85,44.45,24V438.76c0,13,10.6,10.2,10.6,10.21v6.88q-18.93,4.89-37.76,10.33V457c-5.27,6.88-12.79,13.67-23.3,16.91C53.78,481.88,20.4,486.9,20.41,415.87Zm82.94,17.44V297.24c-.07,5.81-51,44.57-51,103.74v13c0,35.94,11.92,53.31,29.92,47.78C88.3,459.9,103.35,450.12,103.35,433.31Z" transform="translate(-20.41 -16.35)"/><path class="cls-1" d="M167.67,413.34V213c0,.18,4.49-38.24,49.58-47.47,8.4-1.66,16.08,0,22.2,4.21V19.91c12.17-8.61,27.64-2.08,27.64,25V409.71c0,13,11.53,11.19,11.54,11.2v6.88q-19.62,3-39.18,6.49v-9.17c-6.12,7.23-13.8,12.48-22.2,14.15C172.16,448.48,167.7,413.52,167.67,413.34Zm71.78-9.63V201.12s0-28.4-22.2-24.08c-20.66,4.15-22.15,29.84-22.16,29.8v200.3s1.51,24.8,22.16,20.65C227.18,425.81,239.46,417.46,239.45,403.71Z" transform="translate(-20.41 -16.35)"/><path class="cls-1" d="M377.46,289.65q-22.45,1.73-44.87,4.2v91s1.55,25,22.43,22.95c16.25-1.5,22.44-16.42,22.44-24.08v-3.06c0,.07,0-23.87,27.89-25.55v24.46c0,30.4-41.07,38.61-50.33,39.7-45.63,4.55-50.19-30.89-50.21-31.06V187.88c0,.21.73-37.34,50.21-42.33,49.53-4.26,50.34,31.61,50.33,32.17V287.8Q391.4,288.58,377.46,289.65Zm0-12.23V180.33S375.91,155.13,355,157s-22.42,27.54-22.43,27.51v97.09Q355,279.15,377.46,277.42Z" transform="translate(-20.41 -16.35)"/><path class="cls-1" d="M532.6,347.76c0-64.37-92.35-124.32-92.35-168.5,0-38.33,34.92-43.67,49.67-43.42,27.94.25,37.26,15.3,43.46,15.48,7,.27,8.53-11.11,8.53-11.11q5,.21,10.07.48v68.8c-3.36-.17-6.71-.33-10.07-.48,0-25.17-18.61-63-52-63.23-14-.06-18.63,10.74-18.63,19.89,0,34.29,90,92.38,90,169.71,0,61.89-33.33,77.49-65.16,77.25-22.51-.2-34.14-16.73-38.8-16.67-8.54.16-8.54,17-8.54,17-2.85.07-5.69.14-8.54.23v-120c3.11-.09,6.21-.18,9.31-.25,0,111.43,41.14,102.64,45,102.88C498.47,395.7,532.6,395.8,532.6,347.76Z" transform="translate(-20.41 -16.35)"/><path class="cls-1" d="M684.15,394.81c0,10.78-4.59,32.73-34.67,28.88-46.33-5.44-50.25-38.74-50.25-42.75V163.83c0-12.25-10.83-13.91-10.83-13.89v-6.12c17.81,1.41,28.63-17.31,28.63-50.2,3.36.34,6.71.68,10.06,1v52.75q21.63,2.33,43.2,5.34v6.11c-29.28-4-43.21,3.13-43.2,24.48V385.17c0,9.94,7.72,25.25,22.39,27.05,10.8,1.33,21.59-4.79,21.58-19.32Q677.62,393.83,684.15,394.81Z" transform="translate(-20.41 -16.35)"/><path class="cls-1" d="M801.2,243.37c-2.28,7.09-9.12,13.86-16,10.78s-13-12.84-9.15-26.53c6.85-19.07,5.34-43.23-14.5-47.46-25.2-5.2-26.76,26.83-26.75,35.18,0,7.64,0,201.06,0,201.06,0,13,10.72,15.05,10.72,15.06v6.88q-24.48-4.83-49.08-8.76V422.7s10.76,1.75,10.75-11.23V177.54c0-13-10.75-14.77-10.75-14.76v-6.12q19.21,3.08,38.37,6.69v13c6.88-6.34,16.07-9.9,26.75-7.66C797.46,176.36,809.54,211.88,801.2,243.37Z" transform="translate(-20.41 -16.35)"/><path class="cls-1" d="M822.43,378.63c.16-94,81.44-70.36,85-118.79V242.26c0-16.82-13.46-28.87-23.19-31.86-24.76-7.62-38.38,26.24-38.37,49.14q-4.9-1.37-9.81-2.68V186.52q4.91,1.32,9.81,2.68s1.53,12.65,7.54,14.35,14.34-8.22,35.32-1.69c29.95,9.44,44,39.13,44,51.3V469.51c0,13,10.39,16.68,10.39,16.69v6.88q-18.54-6.68-37.21-12.79v-9.17c-5.22,3.64-12.7,5.8-23.19,2.56C856.51,465.46,822.44,449.67,822.43,378.63Zm83.5,76.43V311.34c.07,5.81-50.95,13.13-51,72.3v13c0,35.95,12.06,60.71,30.06,66.28C891,464.76,900.7,466.34,905.93,455.06Z" transform="translate(-20.41 -16.35)"/><path class="cls-1" d="M219.14,515.32l-1.33-13.26L218,502c4.73,6.11,9.84,8.43,16.29,8.27s9.12-2.82,9.12-7.09c0-5.45-4.78-7.5-10.15-9.66-6.83-2.88-14.46-6.06-14.46-17,0-7.81,6.68-14.95,18.88-14.95A47,47,0,0,1,250,463.21l1,12.9h-.15c-3.37-5.19-7.86-6.42-12.44-6.42-6,0-9,2-9,6.06,0,4.52,4.42,6.37,9.53,8.48,7,2.93,15.34,6.37,15.34,18.19,0,8.74-6.45,15.88-19.19,16C228.68,518.5,222.69,517.42,219.14,515.32Z" transform="translate(-20.41 -16.35)"/><path class="cls-1" d="M347.92,476.37l-.15.05a11.88,11.88,0,0,0-10.26-5.81h-5.88v34.22c0,6.79,2.21,10.95,4.81,12.29v.15H316v-.15c2.29-1.34,4.81-5.61,4.81-12.29V470.61h-6a11.84,11.84,0,0,0-10.22,5.81l-.16-.05L305.81,462a82.51,82.51,0,0,0,10.79.61h19.19a82.41,82.41,0,0,0,10.79-.61Z" transform="translate(-20.41 -16.35)"/><path class="cls-1" d="M404.06,494.76v-20.4c0-6.42-2.28-10.28-4.26-11.61v-.16h19.11v.16c-1.8,1.33-4,5.09-4,11.61v21.28c0,10.68,3.24,14.69,11.82,14.69,7.64,0,11.08-4.62,11.08-14.69V474.36c0-6.42-2.26-10.28-4-11.61v-.16h18.88v.16c-2,1.33-4.23,5.09-4.23,11.61v20.4c0,16-7.4,23.85-22.59,23.85C411.85,518.61,404.06,510.8,404.06,494.76Z" transform="translate(-20.41 -16.35)"/><path class="cls-1" d="M507.71,517.12c2-1.34,4.24-5.19,4.24-11.67V474.36c0-5.81-2.21-10.28-4.24-11.61v-.16h22.82c16.52,0,27.39,10.13,27.39,27.29s-9.23,27.39-28.65,27.39H507.71ZM530,509.46c10.56,0,16.21-6.89,16.21-19.58,0-13.31-5.34-19.53-16.6-19.53h-6.91v39.11Z" transform="translate(-20.41 -16.35)"/><path class="cls-1" d="M613.52,517.12c2-1.34,4.26-5.19,4.26-11.67V474.36c0-6.52-2.21-10.28-4.26-11.61v-.16h19.37v.16c-1.95,1.33-4.26,5.19-4.26,11.61v31.09c0,6.53,2.21,10.33,4.26,11.67v.15H613.52Z" transform="translate(-20.41 -16.35)"/><path class="cls-1" d="M688.44,490.45c0-17.73,11-29.45,29.19-29.45,16.85,0,28.11,11.41,28.11,28.32,0,17.57-11.72,29.54-29.29,29.54S688.44,506.58,688.44,490.45Zm45.58-.31c0-13.31-6.47-21-17.16-21-10.38,0-16.65,8.22-16.65,20.51,0,12.89,5.81,21,17.06,21C726.93,510.64,734,502.73,734,490.14Z" transform="translate(-20.41 -16.35)"/><path class="cls-1" d="M161.08,497.53H128s0-7.91,8-7.91h29.07c3,0,4.36-3.18,4.36-3.18v3.21S169.51,497.53,161.08,497.53Z" transform="translate(-20.41 -16.35)"/><path class="cls-1" d="M802.47,497.53h33s0-7.91-8-7.91H798.39c-3,0-4.36-3.18-4.36-3.18v3.21S794,497.53,802.47,497.53Z" transform="translate(-20.41 -16.35)"/></svg>